<svg width="18" height="18" viewBox="0 0 18 18" fill="none" xmlns="http://www.w3.org/2000/svg">
<path d="M14.625 8.8125C14.625 12.0227 12.0227 14.625 8.8125 14.625C5.60234 14.625 3 12.0227 3 8.8125C3 5.60234 5.60234 3 8.8125 3C12.0227 3 14.625 5.60234 14.625 8.8125ZM8.14017 11.8902L12.4527 7.57767C12.5991 7.43123 12.5991 7.19379 12.4527 7.04735L11.9224 6.51703C11.7759 6.37057 11.5385 6.37057 11.392 6.51703L7.875 10.034L6.23299 8.39201C6.08655 8.24557 5.84911 8.24557 5.70265 8.39201L5.17233 8.92233C5.02589 9.06877 5.02589 9.30621 5.17233 9.45265L7.60983 11.8901C7.75629 12.0366 7.99371 12.0366 8.14017 11.8902V11.8902Z" fill="#FDFCFF"/>
</svg>
