<svg width="18" height="18" viewBox="0 0 18 18" fill="none" xmlns="http://www.w3.org/2000/svg">
<path d="M8.0625 3H9.9375C10.2492 3 10.5 3.25078 10.5 3.5625V7.5H12.5555C12.9727 7.5 13.1812 8.00391 12.8859 8.29922L9.32109 11.8664C9.14531 12.0422 8.85703 12.0422 8.68125 11.8664L5.11172 8.29922C4.81641 8.00391 5.025 7.5 5.44219 7.5H7.5V3.5625C7.5 3.25078 7.75078 3 8.0625 3ZM15 11.8125V14.4375C15 14.7492 14.7492 15 14.4375 15H3.5625C3.25078 15 3 14.7492 3 14.4375V11.8125C3 11.5008 3.25078 11.25 3.5625 11.25H7.00078L8.14922 12.3984C8.62031 12.8695 9.37969 12.8695 9.85078 12.3984L10.9992 11.25H14.4375C14.7492 11.25 15 11.5008 15 11.8125ZM12.0938 13.875C12.0938 13.6172 11.8828 13.4062 11.625 13.4062C11.3672 13.4062 11.1562 13.6172 11.1562 13.875C11.1562 14.1328 11.3672 14.3438 11.625 14.3438C11.8828 14.3438 12.0938 14.1328 12.0938 13.875ZM13.5938 13.875C13.5938 13.6172 13.3828 13.4062 13.125 13.4062C12.8672 13.4062 12.6562 13.6172 12.6562 13.875C12.6562 14.1328 12.8672 14.3438 13.125 14.3438C13.3828 14.3438 13.5938 14.1328 13.5938 13.875Z" fill="#FDFCFF"/>
</svg>
