<svg width="18" height="18" viewBox="0 0 18 18" fill="none" xmlns="http://www.w3.org/2000/svg">
<path d="M13.875 3.75H11.0625L10.8422 3.31172C10.7955 3.21802 10.7236 3.1392 10.6346 3.08414C10.5456 3.02907 10.443 2.99993 10.3383 3H7.65938C7.55493 2.9996 7.45249 3.02863 7.36378 3.08376C7.27508 3.13889 7.20369 3.2179 7.15781 3.31172L6.9375 3.75H4.125C4.02554 3.75 3.93016 3.78951 3.85983 3.85984C3.78951 3.93017 3.75 4.02555 3.75 4.125V4.875C3.75 4.97446 3.78951 5.06984 3.85983 5.14017C3.93016 5.2105 4.02554 5.25 4.125 5.25H13.875C13.9745 5.25 14.0698 5.2105 14.1402 5.14017C14.2105 5.06984 14.25 4.97446 14.25 4.875V4.125C14.25 4.02555 14.2105 3.93017 14.1402 3.85984C14.0698 3.78951 13.9745 3.75 13.875 3.75V3.75ZM4.99688 13.9453C5.01476 14.2309 5.14082 14.499 5.34939 14.6949C5.55796 14.8909 5.83336 15 6.11953 15H11.8805C12.1666 15 12.442 14.8909 12.6506 14.6949C12.8592 14.499 12.9852 14.2309 13.0031 13.9453L13.5 6H4.5L4.99688 13.9453Z" fill="#FDFCFF"/>
</svg>
