<svg width="18" height="18" viewBox="0 0 18 18" fill="none" xmlns="http://www.w3.org/2000/svg">
<path d="M14.625 8.8125C14.625 12.0234 12.0224 14.625 8.8125 14.625C5.60257 14.625 3 12.0234 3 8.8125C3 5.60351 5.60257 3 8.8125 3C12.0224 3 14.625 5.60351 14.625 8.8125ZM8.8125 9.98438C8.21707 9.98438 7.73438 10.4671 7.73438 11.0625C7.73438 11.6579 8.21707 12.1406 8.8125 12.1406C9.40793 12.1406 9.89062 11.6579 9.89062 11.0625C9.89062 10.4671 9.40793 9.98438 8.8125 9.98438ZM7.78891 6.10908L7.96277 9.29658C7.97091 9.44573 8.09423 9.5625 8.2436 9.5625H9.3814C9.53077 9.5625 9.65409 9.44573 9.66223 9.29658L9.83609 6.10908C9.84488 5.94797 9.7166 5.8125 9.55526 5.8125H8.06972C7.90837 5.8125 7.78012 5.94797 7.78891 6.10908V6.10908Z" fill="#FDFCFF"/>
</svg>
